<svg width="48" height="48" viewBox="0 0 49 49" fill="none" xmlns="http://www.w3.org/2000/svg">
  <path d="M34.5571 31.7C33.5071 31.7 32.7571 30.8 32.7571 29.9C32.7571 28.85 33.6571 28.1 34.5571 28.1C35.4571 28.1 36.3571 29 36.3571 29.9C36.5071 30.8 35.6071 31.7 34.5571 31.7ZM34.5571 24.5C31.7071 24.5 29.3071 26.9 29.3071 29.75C29.3071 33.65 34.5571 39.5 34.5571 39.5C34.5571 39.5 39.8071 33.65 39.8071 29.75C39.8071 26.9 37.4071 24.5 34.5571 24.5Z" fill="#57ACDC"/>
  <path d="M29.1571 23.45C28.7071 21.5 26.9071 20 24.8071 20C22.2571 20 20.3071 21.95 20.3071 24.5C20.3071 27.05 22.2571 29 24.8071 29C25.4071 29 25.8571 28.85 26.3071 28.7C26.6071 26.6 27.6571 24.8 29.1571 23.45ZM26.3071 30.5H17.3071C17.3071 29.7044 16.9911 28.9413 16.4284 28.3787C15.8658 27.8161 15.1028 27.5 14.3071 27.5V21.5C15.1028 21.5 15.8658 21.1839 16.4284 20.6213C16.9911 20.0587 17.3071 19.2956 17.3071 18.5H32.3071C32.3071 19.2956 32.6232 20.0587 33.1858 20.6213C33.7484 21.1839 34.5115 21.5 35.3071 21.5C35.3071 21.5 36.8071 21.5 38.3071 22.4V15.5H11.3071V33.5H27.0571C26.7571 32.45 26.4571 31.55 26.3071 30.5Z" fill="#7EB77F"/>
</svg>
